<?xml version="1.0" encoding="utf-8"?>
<!-- Generator: Adobe Illustrator 27.3.1, SVG Export Plug-In . SVG Version: 6.00 Build 0)  -->
<svg version="1.1" id="Layer_1" xmlns="http://www.w3.org/2000/svg" xmlns:xlink="http://www.w3.org/1999/xlink" x="0px" y="0px"
	 viewBox="0 0 173 30.8" style="enable-background:new 0 0 173 30.8;" xml:space="preserve">
<style type="text/css">
	.st0{fill:#FFFFFF;}
</style>
<g>
	<path class="st0" d="M26.8,6.7h-9.6v23.5H9.6V6.7H0V0h26.8V6.7z"/>
	<path class="st0" d="M48.2,19.5c0,6.7-4.9,11.3-11.8,11.3s-11.9-4.7-11.9-11.3c0-6.6,4.9-11.4,11.9-11.4S48.2,12.8,48.2,19.5z
		 M41.4,19.5c0-3.1-2.1-5.3-5.1-5.3c-3,0-5.1,2.2-5.1,5.3c0,3.2,2.1,5.3,5.1,5.3C39.4,24.8,41.4,22.6,41.4,19.5z"/>
	<path class="st0" d="M87.6,17.7v12.5h-7.2V18.6c0-2.9-1.5-4-3.6-4c-1.3,0-2.4,0.4-3.6,1.6c0,0.4,0,0.8,0,1.2v12.7h-7.2V18.4
		c0-2.9-1.5-3.8-3.3-3.8c-1.4,0-2.7,0.5-3.7,1.8v13.8h-7.2V8.7H59V10c1.5-1.2,3.2-1.9,5.6-1.9c2.8,0,5,0.9,6.6,2.7
		c2.1-1.8,4.4-2.7,7.2-2.7C83.9,8.1,87.6,11.5,87.6,17.7z"/>
	<path class="st0" d="M115,8.7v21.6h-7.2v-1.2c-1.6,1.1-3.5,1.7-5.9,1.7c-5.8,0-10.7-5-10.7-11.4c0-6.4,4.9-11.3,10.7-11.3
		c2.4,0,4.3,0.6,5.9,1.7V8.7H115z M107.8,22.8v-6.7c-1.4-1.5-2.9-1.9-4.4-1.9c-2.9,0-5.1,2.3-5.1,5.2s2.2,5.2,5.1,5.2
		C105,24.7,106.5,24.3,107.8,22.8z"/>
	<path class="st0" d="M137.2,29.7c-2.2,0.9-4.5,1.1-5.8,1.1c-5.9,0-9.4-3.8-9.4-9.6v-6.3h-4.2V8.7h4.2V1.3h7.2v7.3h7.3v6.2h-7.3v6.1
		c0,2.2,1.3,3.2,3.4,3.2c1.4,0,2.5-0.4,3.8-0.9L137.2,29.7z"/>
	<path class="st0" d="M162.8,19.5c0,6.7-4.9,11.3-11.8,11.3c-6.9,0-11.9-4.7-11.9-11.3c0-6.6,4.9-11.4,11.9-11.4
		C157.9,8.1,162.8,12.8,162.8,19.5z M156,19.5c0-3.1-2.1-5.3-5.1-5.3c-3,0-5.1,2.2-5.1,5.3c0,3.2,2.1,5.3,5.1,5.3
		C154,24.8,156,22.6,156,19.5z"/>
	<path class="st0" d="M164.9,26.7c0-2.2,1.8-3.8,4-3.8c2.2,0,4.1,1.6,4.1,3.8c0,2.3-1.9,3.9-4.1,3.9
		C166.7,30.6,164.9,28.9,164.9,26.7z"/>
</g>
<text transform="matrix(1 0 0 1 12.2485 84.619)" style="fill:#FF6347; font-family:'Campton-Bold'; font-size:12px;">Tomato.</text>
</svg>
